<svg xmlns="http://www.w3.org/2000/svg" version="1.1" xmlns:xlink="http://www.w3.org/1999/xlink" xmlns:svgjs="http://svgjs.dev/svgjs" width="1000" height="623" viewBox="0 0 1000 623"><g transform="matrix(1,0,0,1,-0.6060606060606233,0.2522267206477409)"><svg viewBox="0 0 396 247" data-background-color="#ffffff" preserveAspectRatio="xMidYMid meet" height="623" width="1000" xmlns="http://www.w3.org/2000/svg" xmlns:xlink="http://www.w3.org/1999/xlink"><g id="tight-bounds" transform="matrix(1,0,0,1,0.2400000000000091,-0.09999999999999432)"><svg viewBox="0 0 395.52 247.2" height="247.2" width="395.52"><g><svg></svg></g><g><svg viewBox="0 0 395.52 247.2" height="247.2" width="395.52"><g transform="matrix(1,0,0,1,75.54432,87.6711438431949)"><svg viewBox="0 0 244.43135999999998 71.85771231361021" height="71.85771231361021" width="244.43135999999998"><g><svg viewBox="0 0 372.7208252460706 109.57213441770945" height="71.85771231361021" width="244.43135999999998"><g transform="matrix(1,0,0,1,0,15.143471543981555)"><svg viewBox="0 0 244.43135999999998 79.28519132974634" height="79.28519132974634" width="244.43135999999998"><g id="textblocktransform"><svg viewBox="0 0 244.43135999999998 79.28519132974634" height="79.28519132974634" width="244.43135999999998" id="textblock"><g><svg viewBox="0 0 244.43135999999998 79.28519132974634" height="79.28519132974634" width="244.43135999999998"><g transform="matrix(1,0,0,1,0,0)"><svg width="244.43135999999998" viewBox="1.61 -30.66 95.28 30.900000000000002" height="79.28519132974634" data-palette-color="#ffffff"><path d="M10.6 0.24Q8.2 0.24 6.14-0.28 4.08-0.81 2.84-1.55 1.61-2.29 1.61-2.91L1.61-2.91Q1.61-3.25 1.89-3.81 2.17-4.37 2.54-4.81 2.91-5.25 3.13-5.25L3.13-5.25Q3.32-5.25 3.98-4.86L3.98-4.86Q5.49-4.08 6.98-3.56 8.47-3.05 10.6-3.05L10.6-3.05Q12.26-3.05 13.55-3.69 14.84-4.32 15.56-5.48 16.28-6.64 16.28-8.15L16.28-8.15Q16.28-9.77 15.42-10.83 14.55-11.89 13.32-12.51 12.08-13.13 9.74-14.06L9.74-14.06Q7.2-15.04 5.73-15.88 4.25-16.72 3.21-18.33 2.17-19.95 2.17-22.61L2.17-22.61Q2.17-24.93 3.37-26.77 4.57-28.61 6.76-29.64 8.96-30.66 11.82-30.66L11.82-30.66Q13.11-30.66 14.77-30.31 16.43-29.96 17.61-29.35 18.8-28.74 18.8-28L18.8-28Q18.8-27.69 18.54-27.14 18.29-26.59 17.94-26.15 17.6-25.71 17.41-25.71L17.41-25.71Q17.19-25.71 16.53-26.07L16.53-26.07Q15.43-26.66 14.36-27.01 13.28-27.37 11.74-27.37L11.74-27.37Q9.23-27.37 7.68-26.07 6.13-24.78 6.13-22.46L6.13-22.46Q6.13-21.07 6.81-20.17 7.5-19.26 8.54-18.73 9.59-18.19 11.47-17.48L11.47-17.48Q11.6-17.46 12.04-17.29L12.04-17.29Q14.62-16.28 16.27-15.34 17.92-14.4 19.08-12.65 20.24-10.89 20.24-8.15L20.24-8.15Q20.24-5.59 19.06-3.69 17.87-1.78 15.69-0.77 13.5 0.24 10.6 0.24L10.6 0.24ZM27.12 0.07Q26.22 0.07 25.82-0.16 25.41-0.39 25.41-0.88L25.41-0.88 25.41-29.08Q25.41-29.79 25.72-30.08 26.02-30.37 26.71-30.37L26.71-30.37 35.5-30.37Q39.3-30.37 42.25-28.55 45.19-26.73 45.19-21.88L45.19-21.88Q45.19-18.26 43.5-16.27 41.82-14.28 39.72-13.61 37.62-12.94 35.94-12.94L35.94-12.94 29.2-12.94 29.2-0.88Q29.2-0.39 28.78-0.16 28.37 0.07 27.49 0.07L27.49 0.07 27.12 0.07ZM29.2-16.24L35.98-16.24Q37.08-16.24 38.28-16.71 39.48-17.19 40.35-18.44 41.23-19.7 41.23-21.88L41.23-21.88Q41.23-24.78 39.51-25.93 37.79-27.08 35.37-27.08L35.37-27.08 29.2-27.08 29.2-16.24ZM52.41 0.07Q50.65 0.07 50.65-0.88L50.65-0.88 50.65-29.52Q50.65-30.49 52.41-30.49L52.41-30.49 52.75-30.49Q54.49-30.49 54.49-29.52L54.49-29.52 54.49-16.24 54.66-16.24 65.33-29.86Q65.62-30.18 66.27-30.33 66.91-30.49 67.7-30.49L67.7-30.49 68.11-30.49Q68.84-30.49 69.23-30.32 69.62-30.15 69.62-29.91L69.62-29.91Q69.62-29.52 69.21-29.03L69.21-29.03 58.37-15.5 71.5-1.22Q71.89-0.81 71.89-0.54L71.89-0.54Q71.89-0.17 71.47-0.05 71.04 0.07 69.99 0.07L69.99 0.07 69.45 0.07Q68.53 0.07 67.98-0.02 67.43-0.12 67.08-0.49L67.08-0.49 54.66-14.45 54.49-14.45 54.49-0.88Q54.49 0.07 52.75 0.07L52.75 0.07 52.41 0.07ZM77.41 0.07Q75.65 0.07 75.65-0.88L75.65-0.88 75.65-29.52Q75.65-30.49 77.41-30.49L77.41-30.49 77.75-30.49Q79.48-30.49 79.48-29.52L79.48-29.52 79.48-16.24 79.66-16.24 90.32-29.86Q90.62-30.18 91.26-30.33 91.91-30.49 92.69-30.49L92.69-30.49 93.11-30.49Q93.84-30.49 94.23-30.32 94.62-30.15 94.62-29.91L94.62-29.91Q94.62-29.52 94.21-29.03L94.21-29.03 83.37-15.5 96.5-1.22Q96.89-0.81 96.89-0.54L96.89-0.54Q96.89-0.17 96.46-0.05 96.04 0.07 94.99 0.07L94.99 0.07 94.45 0.07Q93.52 0.07 92.97-0.02 92.42-0.12 92.08-0.49L92.08-0.49 79.66-14.45 79.48-14.45 79.48-0.88Q79.48 0.07 77.75 0.07L77.75 0.07 77.41 0.07Z" opacity="1" transform="matrix(1,0,0,1,0,0)" fill="#ffffff" class="wordmark-text-0" data-fill-palette-color="primary" id="text-0"></path></svg></g></svg></g></svg></g></svg></g><g transform="matrix(1,0,0,1,263.14869082836117,0)"><svg viewBox="0 0 109.57213441770945 109.57213441770945" height="109.57213441770945" width="109.57213441770945"><g data-palette-color="#ffc604"><rect width="29.949716740840586" height="109.57213441770945" fill="#ffc604" stroke="transparent" data-fill-palette-color="accent" x="0" fill-opacity="1"></rect><rect width="29.949716740840586" height="109.57213441770945" fill="#ffc604" stroke="transparent" data-fill-palette-color="accent" x="36.52404480590315" fill-opacity="0.75"></rect><rect width="29.949716740840586" height="109.57213441770945" fill="#ffc604" stroke="transparent" data-fill-palette-color="accent" x="73.0480896118063" fill-opacity="0.5"></rect></g></svg></g></svg></g></svg></g><path d="M186.27 81.671L186.27 21.505 390.46 21.505 390.46 225.695 186.27 225.695 186.27 165.529 190.959 165.529 190.959 221.006 385.771 221.006 385.771 26.194 190.959 26.194 190.959 81.671Z" fill="#ffffff" stroke="transparent" data-fill-palette-color="primary"></path></svg></g><defs></defs></svg><rect width="395.52" height="247.2" fill="none" stroke="none" visibility="hidden"></rect></g></svg></g></svg>